<svg width="20" height="20" viewBox="0 0 20 20" fill="none" xmlns="http://www.w3.org/2000/svg">
<path d="M11.7522 13.7239H15.2962C15.3538 13.7249 15.411 13.7125 15.4643 13.6874C15.6354 13.6108 15.7485 13.4197 15.7492 13.2063V8.34907H14.849V11.929L11.4303 7.86467C11.2623 7.66263 10.9865 7.65379 10.8093 7.84476L8.43898 10.4194L4.97759 6.40152L4.34514 7.13807L8.09996 11.5076C8.26906 11.7109 8.54698 11.7182 8.72387 11.5242L11.1141 8.95291L14.2479 12.6854H11.7522V13.7239Z" fill="#CA1616"/>
<path fill-rule="evenodd" clip-rule="evenodd" d="M4.97729 6L8.44492 10.0251L10.6331 7.64828L10.6338 7.64748C10.9128 7.34695 11.3515 7.36173 11.6148 7.67764C11.6146 7.67741 11.6149 7.67786 11.6148 7.67764L14.5982 11.2245V8.07302H16V13.2063C15.9989 13.5235 15.831 13.8201 15.5609 13.9421C15.4767 13.9815 15.3861 14.0013 15.2944 13.9999H11.5014V12.4094H13.6746L11.1049 9.34873L8.89998 11.7207C8.62206 12.0245 8.18141 12.0123 7.91653 11.6959L4 7.13814L4.97729 6ZM4.97789 6.80304L4.69027 7.138L8.28494 11.3212C8.35813 11.4091 8.47146 11.4114 8.54684 11.3287L8.54858 11.3268L11.1232 8.55708L14.8211 12.9615H12.003V13.4478H15.3004C15.3224 13.4483 15.3445 13.4436 15.3657 13.4336L15.3698 13.4317C15.4406 13.4 15.4979 13.3144 15.4984 13.2058V8.62511H15.0998V12.6334L11.2453 8.05104C11.1726 7.96362 11.0604 7.96084 10.985 8.04172C10.9851 8.04162 10.9849 8.04183 10.985 8.04172L8.43304 10.8136L4.97789 6.80304Z" fill="#CA1616"/>
</svg>
