<svg width="65" height="65" viewBox="0 0 65 65" fill="none" xmlns="http://www.w3.org/2000/svg">
<g id="Group 31">
<rect id="Rectangle 5 Copy 29" x="0.5" y="0.5" width="64" height="64" rx="32" fill="#DFFFED"/>
<path id="Fill 1" d="M42.0693 24.7019C41.9319 24.5593 41.793 24.5 41.5993 24.5C41.4538 24.5 41.3393 24.5333 41.2333 24.6101L41.1292 24.7017L29.4907 36.7893L23.9555 31.0296C23.8176 30.8866 23.6789 30.8274 23.4851 30.8274C23.3395 30.8274 23.2251 30.8607 23.1188 30.9377L23.0145 31.0295L21.7085 32.384C21.5644 32.5333 21.5 32.6956 21.5 32.9198C21.5 33.0877 21.5363 33.2212 21.6152 33.3404L21.7086 33.4556L29.0212 41.0388C29.1587 41.1815 29.2973 41.2407 29.4913 41.2407C29.6364 41.2407 29.7509 41.2073 29.8573 41.1303L29.9618 41.0384L43.3752 27.1284C43.5195 26.9785 43.5841 26.8161 43.5841 26.5918C43.5841 26.4243 43.5478 26.2911 43.4688 26.1717L43.3752 26.0561L42.0693 24.7019Z" fill="#0BC15C"/>
</g>
</svg>
