<svg xmlns="http://www.w3.org/2000/svg" width="95" height="95" viewBox="0 0 95 95">
    <g fill="#B30000" fill-rule="nonzero">
        <path d="M47.5 0C73.734 0 95 21.266 95 47.5S73.734 95 47.5 95 0 73.734 0 47.5 21.266 0 47.5 0zm0 4.524c-23.735 0-42.976 19.24-42.976 42.976 0 23.735 19.24 42.976 42.976 42.976 23.735 0 42.976-19.24 42.976-42.976 0-23.735-19.24-42.976-42.976-42.976z"/>
        <path d="M44.853 62.407V36.558c-.198.127-1.113.534-2.746 1.22-1.633.685-2.555 1.056-2.768 1.113V34.65c.34-.156 1.414-.69 3.224-1.601 1.81-.912 2.806-1.432 2.99-1.559h4.665v30.917h-5.365zm20.378.467c-2.021 0-3.841-.322-5.46-.965-1.619-.643-2.93-1.633-3.934-2.969-1.003-1.336-1.505-2.923-1.505-4.76 0-3.718 1.83-6.39 5.492-8.016-3.266-1.555-4.899-3.987-4.899-7.295 0-1.3.269-2.466.806-3.498a6.972 6.972 0 0 1 2.216-2.535c.94-.657 2.029-1.155 3.266-1.494 1.237-.34 2.576-.51 4.018-.51 2.997 0 5.46.7 7.39 2.1 1.93 1.4 2.895 3.379 2.895 5.937 0 3.266-1.513 5.698-4.538 7.295 3.407 1.654 5.11 4.333 5.11 8.037 0 1.838-.498 3.425-1.495 4.76-.996 1.336-2.304 2.322-3.923 2.959-1.618.636-3.431.954-5.439.954zm-4.198-5.153c1.017.862 2.417 1.294 4.198 1.294 1.781 0 3.174-.432 4.178-1.294 1.003-.862 1.505-2.078 1.505-3.647 0-1.555-.523-2.842-1.569-3.86-1.046-1.018-2.417-1.746-4.114-2.184-1.739.438-3.128 1.166-4.167 2.184-1.039 1.018-1.558 2.312-1.558 3.88 0 1.556.509 2.765 1.527 3.627zm4.198-12.999c1.74-.396 3.075-1.085 4.008-2.067.933-.983 1.4-2.238 1.4-3.764 0-1.273-.51-2.298-1.527-3.075-1.018-.778-2.312-1.166-3.88-1.166-1.556 0-2.85.388-3.881 1.166-1.032.777-1.548 1.802-1.548 3.075 0 1.526.48 2.785 1.442 3.774.96.99 2.29 1.675 3.986 2.057zM24.42 57.005v-7.57h-7.59v-3.544h7.608v-7.57h3.674v7.57h7.552v3.544h-7.57v7.57z"/>
    </g>
</svg>
