<svg width="15" height="10" viewBox="0 0 15 10" fill="none" xmlns="http://www.w3.org/2000/svg">
<path fill-rule="evenodd" clip-rule="evenodd" d="M7.05882 0C3.12433 0 0 1.33291 0 3.11111V7.11111C0 8.83545 3.36286 10 7.5 10C11.6371 10 15 8.83545 15 7.11111V3.11111C15 2.51852 14.1176 2.51852 14.1176 3.11111C14.1176 4.08683 11.1598 5.11111 7.5 5.11111C3.84017 5.11111 0.882353 4.08683 0.882353 3.11111C0.882353 2.03267 3.56337 0.888889 7.05882 0.888889C8.24205 0.888889 9.57885 1.08268 10.6608 1.39338C11.1633 1.53767 11.5791 1.69914 11.8587 1.85659C11.9711 1.91988 12.0554 1.97928 12.1079 2.02894C12.0809 2.05876 12.0293 2.10979 11.9435 2.17334C11.7402 2.32398 11.4254 2.47721 11.0266 2.61299C10.1096 2.92518 8.86859 3.11111 7.5 3.11111C5.77641 3.11111 4.70224 2.90716 3.56029 2.42917C3.33528 2.33499 3.07709 2.44239 2.9836 2.66906C2.89011 2.89573 2.99673 3.15584 3.22173 3.25002C4.47407 3.77422 5.66321 4 7.5 4C10.5047 4 13.0147 3.14545 13.0147 2C13.0147 1.36437 12.2199 0.916791 10.9027 0.538542C9.74319 0.205576 8.3251 0 7.05882 0ZM7.06425 9.10604C6.36728 9.09031 5.70005 9.0378 5.07896 8.95631V8.22213C5.07896 7.97667 4.88144 7.77768 4.63778 7.77768C4.39413 7.77768 4.19661 7.97667 4.19661 8.22213V8.81569C3.62148 8.70687 3.10122 8.57259 2.65249 8.42079V6.88879C2.65249 6.64333 2.45497 6.44435 2.21131 6.44435C1.96766 6.44435 1.77014 6.64333 1.77014 6.88879V8.05277C1.20879 7.75915 0.887784 7.43245 0.887784 7.11101V4.528C2.15165 5.44252 4.64325 5.9999 7.50543 5.9999C10.3676 5.9999 12.8592 5.44252 14.1231 4.528V7.11101C14.1231 7.43245 13.8021 7.75915 13.2407 8.05277V6.88879C13.2407 6.64333 13.0432 6.44435 12.7995 6.44435C12.5559 6.44435 12.3584 6.64333 12.3584 6.88879V8.42079C11.9096 8.57259 11.3894 8.70687 10.8143 8.81569V8.22213C10.8143 7.97667 10.6167 7.77768 10.3731 7.77768C10.1294 7.77768 9.9319 7.97667 9.9319 8.22213V8.95631C9.31081 9.0378 8.64358 9.09031 7.94661 9.10604V7.77768C7.94661 7.53222 7.74909 7.33324 7.50543 7.33324C7.26178 7.33324 7.06425 7.53222 7.06425 7.77768V9.10604Z" fill="#333333"/>
</svg>
